<svg width="68" height="68" viewBox="0 0 68 68" fill="none" xmlns="http://www.w3.org/2000/svg">
<path d="M26.8889 34H32.7184C34.3726 34 35.3079 36.2588 34.3633 37.6168C32.1416 40.811 30.4444 44.882 30.4444 48.2222C30.4444 53.5556 37.5556 55.3333 41.1111 48.2222M32.6658 18.4442H35.3325M32.6658 21.1109H35.3325M66 34C66 51.6731 51.6731 66 34 66H4.57468C3.33086 66 2.47153 64.7555 2.91223 63.5923L6.08963 55.2062C6.90465 53.0551 6.58049 50.6665 5.528 48.6211C3.27294 44.2386 2 39.2679 2 34C2 16.3269 16.3269 2 34 2C51.6731 2 66 16.3269 66 34ZM37.5556 19.7778C37.5556 21.7415 35.9637 23.3333 34 23.3333C32.0363 23.3333 30.4444 21.7415 30.4444 19.7778C30.4444 17.8141 32.0363 16.2222 34 16.2222C35.9637 16.2222 37.5556 17.8141 37.5556 19.7778Z" stroke="#F72222" stroke-width="3" stroke-linecap="round"/>
</svg>
